<?xml version="1.0" standalone="no"?>
<!DOCTYPE svg PUBLIC "-//W3C//DTD SVG 20010904//EN"
 "http://www.w3.org/TR/2001/REC-SVG-20010904/DTD/svg10.dtd">
<svg version="1.0" xmlns="http://www.w3.org/2000/svg"
 width="784.000000pt" height="784.000000pt" viewBox="0 0 784.000000 784.000000"
 preserveAspectRatio="xMidYMid meet">
<metadata>
Created by potrace 1.14, written by Peter Selinger 2001-2017
</metadata>
<g transform="translate(0.000000,784.000000) scale(0.100000,-0.100000)"
fill="#000000" stroke="none">
<path d="M1073 6073 c2 -973 6 -1797 10 -1833 10 -102 17 -162 22 -195 2 -16
7 -48 9 -70 3 -22 8 -52 11 -67 3 -16 7 -40 10 -55 12 -80 48 -249 66 -308 75
-253 97 -322 120 -367 5 -10 9 -22 9 -28 0 -6 14 -40 30 -75 17 -35 30 -67 30
-70 0 -10 122 -257 151 -307 31 -52 29 -56 -20 -32 -98 49 -285 54 -381 12
-77 -35 -117 -85 -196 -244 -38 -77 -75 -145 -81 -152 -7 -7 -13 -17 -13 -21
0 -21 -144 -200 -238 -296 -144 -146 -156 -165 -156 -235 0 -67 22 -119 84
-194 42 -51 360 -367 439 -436 41 -36 80 -71 87 -77 7 -7 17 -13 23 -13 6 0
11 -4 11 -8 0 -4 24 -26 53 -47 28 -22 54 -42 57 -45 3 -3 30 -23 60 -45 30
-22 57 -43 58 -47 2 -5 8 -8 13 -8 6 0 33 -17 62 -37 29 -21 62 -43 72 -50
151 -93 269 -161 355 -205 58 -29 107 -56 108 -60 2 -5 9 -8 16 -8 7 0 37 -11
67 -26 30 -14 70 -32 89 -41 19 -9 46 -22 60 -29 14 -7 28 -13 33 -13 4 0 23
-8 43 -16 20 -8 38 -15 40 -15 1 0 15 -5 31 -12 15 -6 33 -12 38 -14 6 -2 57
-20 115 -40 106 -37 351 -110 393 -117 12 -2 29 -7 37 -10 16 -6 97 -24 145
-32 17 -3 39 -7 50 -9 40 -8 101 -17 140 -21 22 -2 60 -7 85 -10 64 -8 176
-19 340 -32 113 -9 373 -9 485 0 44 3 109 9 145 11 83 7 178 16 210 21 14 3
50 7 80 10 30 3 82 10 115 16 33 6 74 13 90 16 17 2 46 9 65 14 19 6 51 13 70
16 19 3 37 9 38 14 2 5 7 7 11 5 7 -5 226 54 276 74 17 6 37 13 45 15 18 4
134 43 170 58 14 6 30 11 36 12 14 3 154 63 176 75 10 6 25 10 33 10 8 0 15 5
15 10 0 6 3 9 8 8 14 -3 62 14 62 23 0 5 5 9 10 9 20 0 313 150 318 162 2 5 8
8 14 8 13 0 153 85 288 175 174 116 307 219 514 395 62 53 295 288 333 335 85
106 126 200 122 281 -3 52 -49 149 -96 201 -57 62 -120 142 -173 218 -14 20
-29 42 -35 48 -32 39 -59 87 -124 216 -39 80 -86 164 -104 187 -34 46 -107 89
-169 99 -45 9 -154 9 -188 1 -14 -3 -34 -8 -45 -10 -34 -7 -108 -39 -147 -63
l-38 -23 12 28 c7 15 22 43 33 62 23 38 81 157 115 235 32 72 92 218 95 230 1
6 5 17 8 25 19 44 92 282 102 330 2 8 4 16 5 18 3 2 2 1 15 57 5 22 9 42 10
45 2 6 23 105 30 140 3 14 8 40 11 59 2 19 6 46 9 60 26 152 33 218 50 466 4
50 9 3304 5 3413 0 9 -577 12 -2850 12 l-2851 0 4 -1767z m4673 -4179 c14 -84
81 -161 283 -322 l25 -19 -22 -7 c-12 -4 -22 -12 -22 -17 0 -5 -6 -9 -14 -9
-8 0 -16 -3 -18 -7 -3 -8 -144 -103 -152 -103 -2 0 -35 -19 -72 -42 -150 -91
-599 -305 -658 -314 -6 -1 -48 -13 -93 -28 -46 -14 -95 -28 -110 -31 -39 -8
-58 -13 -58 -15 0 -1 -7 -3 -15 -5 -8 -1 -42 -8 -75 -16 -33 -7 -64 -13 -70
-15 -18 -4 -130 -23 -165 -29 -19 -3 -46 -8 -60 -10 -41 -8 -135 -19 -270 -31
-150 -14 -502 -8 -670 10 -122 14 -213 26 -220 31 -3 2 -24 6 -46 9 -207 31
-548 139 -809 256 -113 50 -320 154 -323 163 -2 4 -8 7 -13 7 -5 0 -70 37
-144 83 l-134 84 117 114 c64 63 123 125 130 138 21 36 38 103 36 134 -2 15 0
27 3 27 3 0 32 -26 63 -57 90 -90 150 -144 318 -284 89 -75 379 -265 502 -330
36 -19 67 -37 70 -40 3 -3 28 -16 55 -29 28 -13 58 -30 69 -39 10 -9 20 -15
22 -13 2 1 35 -11 72 -29 65 -30 112 -51 122 -54 3 -1 22 -9 44 -18 21 -9 40
-17 42 -17 1 0 15 -5 31 -12 15 -6 30 -12 33 -13 3 -1 12 -4 20 -8 179 -70
376 -112 415 -89 6 4 19 8 29 9 33 5 275 89 366 126 201 82 439 197 550 265
19 12 42 25 50 28 52 24 332 222 406 289 7 5 36 30 65 55 29 25 103 95 164
155 60 61 114 107 118 104 4 -3 10 -19 13 -35z"/>
</g>
</svg>
